<?xml version="1.0" standalone="no"?>
<!DOCTYPE svg PUBLIC "-//W3C//DTD SVG 20010904//EN"
 "http://www.w3.org/TR/2001/REC-SVG-20010904/DTD/svg10.dtd">
<svg version="1.0" xmlns="http://www.w3.org/2000/svg"
 width="500.000000pt" height="500.000000pt" viewBox="0 0 500.000000 500.000000"
 preserveAspectRatio="xMidYMid meet">
<metadata>
Created by potrace 1.14, written by Peter Selinger 2001-2017
</metadata>
<g transform="translate(0.000000,500.000000) scale(0.100000,-0.100000)"
fill="#000000" stroke="none">
<path d="M2166 4899 c-60 -14 -242 -93 -331 -144 -43 -25 -95 -49 -114 -55
-20 -5 -126 -11 -236 -14 -110 -3 -211 -7 -225 -10 -14 -2 -56 -7 -95 -11 -38
-3 -83 -8 -100 -10 -16 -3 -52 -7 -80 -10 -27 -3 -61 -7 -75 -10 -55 -12 -259
-12 -325 0 -84 15 -115 7 -115 -30 0 -18 16 -42 53 -79 111 -111 229 -136 697
-151 210 -6 312 -15 360 -30 25 -8 35 -42 19 -61 -15 -18 -41 -16 -204 20
-121 27 -275 32 -358 13 -38 -8 -52 -17 -64 -41 -22 -42 -21 -173 1 -251 24
-82 94 -212 172 -320 172 -236 187 -274 188 -450 1 -213 -58 -346 -229 -524
-151 -157 -156 -172 -170 -512 -5 -128 -4 -137 18 -179 24 -46 37 -53 122 -64
62 -9 72 -13 143 -63 83 -59 113 -70 205 -77 42 -3 99 -11 125 -17 99 -22 176
-9 239 41 37 29 75 25 125 -13 49 -37 68 -72 79 -139 16 -102 74 -133 267
-143 138 -8 165 -19 250 -101 78 -77 96 -90 69 -52 -31 44 -65 108 -77 143 -6
19 -21 40 -32 46 -11 6 -64 10 -117 10 -88 -1 -185 9 -197 21 -2 3 -6 23 -8
45 -2 22 -10 53 -19 69 -37 72 -30 137 19 169 14 9 55 17 96 20 123 8 159 15
212 40 59 28 132 96 181 171 35 52 94 181 114 246 73 246 110 398 97 398 -11
0 -55 -98 -90 -205 -60 -179 -108 -267 -184 -340 -97 -93 -230 -115 -377 -62
-76 27 -91 16 -141 -104 -27 -65 -47 -98 -72 -119 -33 -27 -39 -29 -101 -23
-72 7 -109 7 -216 4 -60 -2 -105 4 -250 35 -11 3 -72 11 -135 20 -227 29 -282
61 -294 169 -8 69 1 210 20 313 5 23 10 30 17 23 12 -12 14 -132 3 -224 -10
-77 -1 -85 37 -34 31 40 97 169 97 187 0 8 -10 24 -22 37 -23 24 -21 37 5 27
8 -3 27 -30 41 -60 14 -30 29 -54 34 -54 5 0 18 13 30 30 12 16 36 37 53 46
39 20 199 61 272 69 55 7 97 -5 97 -26 0 -6 -7 -3 -16 5 -22 22 -29 21 -98
-22 -34 -21 -97 -58 -141 -81 -95 -51 -117 -77 -122 -145 -13 -170 179 -209
325 -66 67 66 101 155 104 270 1 43 -29 99 -59 111 -43 16 -122 12 -219 -12
-69 -17 -102 -20 -154 -15 -36 4 -92 10 -125 12 -74 7 -109 26 -100 57 7 24
47 85 147 223 109 149 190 338 204 471 4 32 7 60 7 63 5 27 -20 124 -43 170
-60 119 -93 165 -117 162 -15 -2 -37 11 -68 39 -124 114 -205 287 -202 428 3
110 39 134 194 126 54 -2 109 -6 123 -9 14 -3 38 -7 55 -10 45 -8 128 -36 146
-49 28 -21 31 -52 8 -81 -21 -27 -38 -29 -114 -11 -129 29 -168 36 -217 37
-93 2 -120 -39 -79 -121 41 -79 169 -221 200 -221 21 0 63 43 133 140 163 224
216 344 199 453 0 5 -9 6 -19 3 -11 -4 -28 2 -43 15 -66 57 -149 71 -344 55
-121 -10 -204 -18 -235 -22 -43 -6 -258 -6 -285 0 -67 15 -85 21 -131 48 -52
31 -93 83 -78 98 5 5 41 2 79 -5 66 -13 448 -13 560 -1 22 3 110 7 195 10 166
6 219 -1 257 -37 20 -18 41 -78 35 -99 -1 -5 4 -8 11 -8 7 0 25 27 41 59 43
91 114 155 241 218 141 71 198 73 314 14 103 -52 152 -57 284 -24 88 21 105
23 155 13 124 -26 253 -104 318 -193 19 -27 23 -28 58 -19 24 7 47 7 63 1 33
-12 33 -13 22 23 -15 52 -11 86 11 98 22 12 98 -14 220 -75 135 -68 162 -98
132 -145 -22 -34 -32 -43 -71 -62 -58 -28 -131 -5 -196 62 -41 42 -65 51 -65
25 0 -25 -28 -72 -47 -80 -59 -25 -230 -62 -245 -54 -23 12 -31 45 -25 103 6
55 -8 60 -29 11 -28 -69 -11 -170 34 -194 18 -9 56 -8 132 4 75 12 144 13 163
4 27 -15 20 -43 -23 -98 -22 -28 -37 -51 -32 -51 4 0 57 29 118 65 146 87 200
107 287 104 123 -4 340 -71 389 -120 52 -51 30 -131 -72 -269 -116 -156 -293
-295 -403 -315 -53 -10 -107 2 -107 23 0 30 27 58 178 183 240 199 284 248
262 288 -5 11 -24 23 -42 27 -18 4 -40 9 -48 11 -8 2 -67 5 -130 7 -112 3
-180 -7 -229 -33 -33 -18 -58 -84 -66 -176 -3 -44 -9 -96 -11 -115 -8 -60 -60
-152 -124 -220 -91 -97 -93 -105 -25 -79 63 23 131 30 183 18 70 -16 154 -12
212 10 75 29 147 85 299 235 157 154 203 179 320 179 76 -1 168 -19 271 -53
63 -21 116 -31 124 -22 8 8 -169 76 -261 100 -43 12 -105 24 -138 28 -33 5
-63 9 -67 10 -5 1 -15 2 -23 3 -11 1 -14 15 -14 58 1 57 0 59 -48 103 -88 81
-250 146 -388 155 -27 2 -52 4 -54 5 -3 0 17 14 43 31 51 34 94 85 101 117 5
27 -19 47 -96 78 -35 14 -102 44 -149 66 -135 63 -182 80 -225 80 -46 -1 -75
-28 -75 -72 0 -40 -21 -53 -51 -33 -13 9 -26 20 -29 24 -14 19 -167 113 -255
156 -139 70 -188 86 -290 98 -76 9 -105 13 -164 25 -62 12 -81 11 -135 -1z"/>
<path d="M2470 3617 c-57 -16 -136 -56 -156 -78 -14 -16 -14 -21 2 -54 17 -37
78 -100 117 -122 27 -15 77 -16 112 -3 14 5 55 32 92 60 36 28 85 55 107 61
113 30 127 53 53 90 -96 50 -243 70 -327 46z"/>
<path d="M3506 3333 c-5 -29 -12 -120 -21 -273 -12 -207 -26 -295 -61 -387
-52 -139 -205 -380 -348 -548 -56 -66 -38 -57 39 20 97 96 186 210 242 310 82
144 155 332 169 433 3 26 9 67 13 92 20 131 -11 466 -33 353z"/>
<path d="M874 1260 c-244 -49 -391 -312 -314 -562 40 -132 148 -252 263 -293
108 -39 266 -18 366 49 41 28 111 107 111 125 0 6 -74 53 -163 103 -30 17 -30
17 -51 -14 -45 -67 -139 -91 -206 -52 -37 22 -75 78 -89 130 -23 85 6 222 55
266 73 65 189 52 243 -27 l23 -35 82 57 c44 31 85 60 90 64 13 11 -30 74 -77
113 -81 66 -221 98 -333 76z"/>
<path d="M1573 1252 c-3 -7 -6 -204 -7 -437 l-1 -425 313 0 312 0 0 105 0 105
-192 0 -193 0 3 68 4 69 156 -1 157 0 0 85 c1 46 -1 90 -3 97 -3 9 -44 12
-158 12 l-154 0 0 59 c0 38 4 60 13 63 6 2 90 3 185 3 l172 -1 0 103 c0 91 -2
103 -17 104 -10 1 -146 2 -302 2 -222 2 -285 -1 -288 -11z"/>
<path d="M2480 828 l0 -438 120 0 120 0 0 228 0 227 26 -55 c27 -59 45 -97 89
-197 15 -35 32 -63 36 -64 5 -1 32 -1 59 -1 28 0 54 0 58 1 5 1 40 70 78 155
l69 154 3 -224 2 -224 120 0 120 0 -2 437 -3 436 -127 1 -128 1 -92 -202 c-51
-110 -95 -200 -99 -198 -3 2 -45 91 -94 197 -49 106 -90 195 -91 197 -2 2 -62
4 -133 5 l-131 2 0 -438z"/>
<path d="M3952 1251 c-8 -9 -86 -205 -172 -436 l-156 -420 124 -3 c69 -1 126
-1 128 1 3 2 15 39 28 83 l23 79 118 0 118 0 25 -83 26 -82 128 0 c71 0 127 3
124 8 -2 4 -34 88 -71 187 -119 323 -248 670 -250 672 -1 2 -41 5 -89 7 -72 3
-91 1 -104 -13z m114 -313 c7 -29 20 -78 28 -108 9 -30 18 -67 21 -82 l5 -28
-75 0 c-53 0 -75 4 -75 13 0 6 12 53 26 102 14 50 30 107 36 128 6 21 13 36
16 33 2 -3 10 -29 18 -58z"/>
</g>
</svg>
